<?xml version="1.0" standalone="no"?>
<!DOCTYPE svg PUBLIC "-//W3C//DTD SVG 20010904//EN"
 "http://www.w3.org/TR/2001/REC-SVG-20010904/DTD/svg10.dtd">
<svg version="1.0" xmlns="http://www.w3.org/2000/svg"
 width="512.000000pt" height="512.000000pt" viewBox="0 0 512.000000 512.000000"
 preserveAspectRatio="xMidYMid meet">
<metadata>
Created by potrace 1.11, written by Peter Selinger 2001-2013
</metadata>
<g transform="translate(0.000000,512.000000) scale(0.100000,-0.100000)"
fill="#000000" stroke="none">
<path d="M628 4167 c-18 -5 -44 -18 -57 -30 -44 -40 -51 -75 -51 -244 l0 -158
-247 0 c-193 0 -249 -2 -260 -13 -16 -16 -16 -27 -2 -53 10 -19 21 -20 207
-19 108 1 221 1 250 1 l52 -1 0 -145 0 -145 -52 -1 c-29 0 -138 0 -242 0 -193
0 -226 -5 -226 -38 0 -43 20 -46 274 -46 l241 -1 0 -144 0 -145 -243 -2 c-251
-1 -272 -4 -272 -43 0 -39 20 -42 275 -42 l246 0 -3 -146 -3 -146 -248 0
c-255 -1 -267 -3 -267 -41 0 -37 15 -40 232 -42 117 -1 230 -2 251 -3 l37 0 0
-145 0 -145 -243 0 c-268 0 -286 -4 -273 -53 8 -32 -16 -29 281 -31 l230 -1 3
-147 3 -147 -246 0 c-254 0 -275 -3 -275 -40 0 -39 16 -41 272 -41 l248 0 0
-148 0 -147 -237 0 c-131 1 -246 -1 -255 -3 -37 -9 -28 -85 10 -81 9 1 121 1
249 0 l232 -1 3 -172 c3 -164 4 -175 27 -204 47 -63 -101 -59 1999 -62 1880
-2 1925 -2 1967 17 73 32 85 68 85 261 l0 160 244 0 c209 0 247 2 260 16 18
18 20 32 6 54 -7 12 -50 14 -259 15 l-251 0 0 148 0 147 248 0 c256 0 272 2
272 41 0 38 -21 41 -275 40 l-245 0 0 147 0 147 238 0 c130 -1 245 1 255 3 9
3 20 16 24 30 12 48 -8 52 -274 52 l-243 0 0 145 c0 143 0 145 23 146 12 0
122 1 245 1 182 0 225 3 237 15 20 20 19 49 -2 59 -10 4 -124 8 -253 10 -129
1 -238 2 -242 3 -5 0 -8 66 -8 145 l0 144 213 0 c313 1 286 -2 299 27 9 21 9
29 -4 42 -14 13 -51 16 -260 17 l-243 1 -3 145 -3 145 251 0 c212 0 252 2 260
15 14 21 12 36 -5 54 -13 13 -48 15 -208 15 -105 0 -216 0 -244 0 l-53 1 0
145 0 145 108 1 c59 0 171 0 249 -1 134 -1 142 0 153 20 15 28 4 57 -23 62
-12 2 -125 3 -252 3 l-230 0 -5 172 c-5 187 -9 199 -74 247 l-27 21 -1920 0
c-1055 0 -1934 -4 -1951 -8z"/>
</g>
</svg>
